<svg width="90" height="90" viewBox="0 0 90 90" fill="none" xmlns="http://www.w3.org/2000/svg">
<path d="M78.3 76.95L59.1 41.4375C58.4574 40.2469 57.5046 39.2522 56.3427 38.559C55.1808 37.8658 53.853 37.4998 52.5 37.4998C51.147 37.4998 49.8192 37.8658 48.6573 38.559C47.4954 39.2522 46.5426 40.2469 45.9 41.4375L40.0125 52.5L38.625 49.6125C38.0109 48.3445 37.052 47.2751 35.8582 46.5268C34.6644 45.7785 33.2839 45.3817 31.875 45.3817C30.4661 45.3817 29.0856 45.7785 27.8918 46.5268C26.698 47.2751 25.7391 48.3445 25.125 49.6125L11.625 77.1C11.3446 77.6723 11.2147 78.3066 11.2475 78.943C11.2803 79.5795 11.4747 80.1971 11.8125 80.7375C12.1503 81.2779 12.6202 81.7234 13.1779 82.0317C13.7356 82.3401 14.3627 82.5013 15 82.5H75C75.6508 82.4999 76.2904 82.3304 76.8558 82.0082C77.4212 81.6861 77.8931 81.2223 78.225 80.6625C78.5587 80.1034 78.7411 79.4671 78.7543 78.8162C78.7674 78.1652 78.6109 77.5221 78.3 76.95Z" fill="black"/>
<path d="M78.75 82.5H11.25C10.2554 82.5 9.30162 82.1049 8.59836 81.4016C7.89509 80.6984 7.50001 79.7446 7.50001 78.75C7.50001 77.7554 7.89509 76.8016 8.59836 76.0983C9.30162 75.3951 10.2554 75 11.25 75H78.75C79.7446 75 80.6984 75.3951 81.4017 76.0983C82.1049 76.8016 82.5 77.7554 82.5 78.75C82.5 79.7446 82.1049 80.6984 81.4017 81.4016C80.6984 82.1049 79.7446 82.5 78.75 82.5ZM22.5 7.5C19.5333 7.5 16.6332 8.37973 14.1665 10.028C11.6997 11.6762 9.77713 14.0189 8.64181 16.7597C7.5065 19.5006 7.20945 22.5166 7.78823 25.4264C8.36701 28.3361 9.79562 31.0088 11.8934 33.1066C13.9912 35.2044 16.6639 36.633 19.5737 37.2118C22.4834 37.7906 25.4994 37.4935 28.2403 36.3582C30.9811 35.2229 33.3238 33.3003 34.972 30.8335C36.6203 28.3668 37.5 25.4667 37.5 22.5C37.5 18.5218 35.9197 14.7064 33.1066 11.8934C30.2936 9.08035 26.4783 7.5 22.5 7.5Z" fill="#2CA9BC"/>
</svg>
